<svg xmlns="http://www.w3.org/2000/svg" version="1.0" width="799.000000pt" height="707.000000pt" viewBox="0 0 799.000000 707.000000" preserveAspectRatio="xMidYMid meet">

<g transform="translate(0.000000,707.000000) scale(0.100000,-0.100000)" fill="#1652f1" stroke="none">
<path d="M4370 6881 c-52 -32 -399 -255 -770 -496 -371 -240 -759 -492 -862 -558 -110 -72 -189 -129 -192 -140 -16 -61 -108 -1120 -99 -1142 8 -21 1322 -915 1344 -915 18 0 606 202 631 216 12 7 198 -139 453 -355 138 -117 251 -217 253 -222 3 -8 -87 -751 -92 -756 -13 -13 -791 -343 -801 -339 -7 2 -246 168 -531 367 -549 383 -944 659 -1289 899 -115 81 -239 164 -275 185 -36 21 -143 90 -238 153 l-174 114 -476 -318 c-262 -174 -620 -412 -795 -528 l-319 -211 5 -39 c3 -21 10 -43 15 -48 10 -10 131 -39 712 -168 195 -44 380 -89 410 -100 30 -11 76 -23 102 -26 46 -6 51 -4 165 68 65 42 206 133 313 204 107 71 198 130 201 132 4 2 10 -37 13 -85 4 -48 9 -95 11 -103 3 -10 -29 -39 -93 -84 -232 -166 -352 -259 -352 -271 0 -35 234 -994 250 -1026 23 -44 8 -37 405 -192 315 -123 1183 -464 1627 -638 124 -49 237 -89 251 -89 13 0 35 8 48 19 13 10 29 20 36 22 7 2 240 212 518 467 279 255 508 462 510 460 1 -2 6 -54 10 -116 l7 -113 -85 -82 c-47 -45 -129 -129 -183 -187 l-98 -105 90 -13 c49 -7 388 -51 754 -97 501 -62 667 -80 675 -71 10 11 237 201 835 695 168 139 311 264 318 278 13 23 11 28 -20 60 -18 19 -132 112 -253 207 -1405 1101 -1332 1044 -1386 1082 l-44 30 -38 170 c-99 436 -299 1299 -303 1305 -3 6 -204 100 -1188 558 -289 134 -432 205 -436 218 -4 10 -19 124 -35 253 l-27 235 310 626 c170 344 313 636 316 647 12 38 -32 26 -134 -37z" fill="#1652f1"/>
<path d="M6223 5379 c-45 -112 -118 -314 -164 -447 l-82 -244 -113 -106 c-62 -58 -116 -112 -118 -119 -3 -7 15 -104 39 -216 24 -111 87 -400 140 -642 52 -242 99 -443 104 -448 4 -4 77 88 161 205 85 117 213 296 287 398 81 112 133 194 133 209 0 48 -113 733 -155 941 -52 254 -134 627 -144 654 -5 13 -30 -39 -88 -185z" fill="#1652f1"/>
</g>
</svg>